<?xml version="1.0" encoding="utf-8"?>
<!-- Generator: Adobe Illustrator 22.0.1, SVG Export Plug-In . SVG Version: 6.00 Build 0)  -->
<svg version="1.1" xmlns="http://www.w3.org/2000/svg" xmlns:xlink="http://www.w3.org/1999/xlink" x="0px" y="0px"
	 viewBox="0 0 512 512" style="enable-background:new 0 0 512 512;" xml:space="preserve">
<style type="text/css">
	.st0{fill:#7585F0;stroke:#000000;stroke-width:20;stroke-linecap:round;stroke-linejoin:round;stroke-miterlimit:10;}
	.st1{fill:none;stroke:#000000;stroke-width:20;stroke-linecap:round;stroke-linejoin:round;stroke-miterlimit:10;}
	.st2{fill:#FFFFFF;}
	.st3{fill:#E4B75C;stroke:#000000;stroke-width:20;stroke-linecap:round;stroke-linejoin:round;stroke-miterlimit:10;}
	.st4{fill:#DE5A5A;stroke:#000000;stroke-width:20;stroke-linecap:round;stroke-linejoin:round;stroke-miterlimit:10;}
	.st5{fill:#D4F4FF;}
	.st6{fill:#D4F4FF;stroke:#000000;stroke-width:20;stroke-linecap:round;stroke-linejoin:round;stroke-miterlimit:10;}
	.st7{fill:#F2DF98;stroke:#000000;stroke-width:20;stroke-linecap:round;stroke-linejoin:round;stroke-miterlimit:10;}
	.st8{fill:#FFFFFF;stroke:#000000;stroke-width:20;stroke-linecap:round;stroke-linejoin:round;stroke-miterlimit:10;}
	.st9{fill:#87BF8C;stroke:#000000;stroke-width:20;stroke-linecap:round;stroke-linejoin:round;stroke-miterlimit:10;}
	.st10{fill:#7585F0;}
	.st11{fill:#EDD4B4;stroke:#000000;stroke-width:20;stroke-linecap:round;stroke-linejoin:round;stroke-miterlimit:10;}
	.st12{fill:#E4B75C;}
	.st13{fill:#AACF9A;stroke:#000000;stroke-width:20;stroke-linecap:round;stroke-linejoin:round;stroke-miterlimit:10;}
	.st14{fill:#E8C673;stroke:#000000;stroke-width:20;stroke-linecap:round;stroke-linejoin:round;stroke-miterlimit:10;}
	.st15{fill:#F2DF98;}
	.st16{fill:#D0524E;stroke:#000000;stroke-width:20;stroke-linecap:round;stroke-linejoin:round;stroke-miterlimit:10;}
	.st17{fill:#87BF8C;}
	.st18{fill:#AACF9A;}
	.st19{fill:#DE5A5A;}
	.st20{fill:#E8C673;}
	.st21{fill:#7ACBAA;}
	.st22{fill:#EFCDC2;}
	.st23{fill:#6B7DFA;stroke:#000000;stroke-width:20;stroke-linecap:round;stroke-linejoin:round;stroke-miterlimit:10;}
</style>
<g id="GUIDELINES">
</g>
<g id="ICON_1_">
	<g>
		<path class="st8" d="M437,348.3V50c0-22.1-17.9-40-40-40H115c-22.1,0-40,17.9-40,40v412c0,22.1,17.9,40,40,40h282
			c22.1,0,40-17.9,40-40v-55"/>
		<g>
			<polyline class="st0" points="314.4,149.5 128.1,149.5 128.1,63.9 383.9,63.9 383.9,149.5 			"/>
			<g>
				<g>
					<path class="st4" d="M387.2,281.8V220c0-12.5-10.1-22.6-22.6-22.6h-67.7c-12.5,0-22.6,10.1-22.6,22.6v61.9
						c0,12.5,10.1,22.6,22.6,22.6h67.7C377.1,304.5,387.2,294.3,387.2,281.8z"/>
					<g>
						<line class="st1" x1="330.7" y1="236.6" x2="330.7" y2="269.3"/>
						<line class="st1" x1="347.1" y1="252.9" x2="314.4" y2="252.9"/>
					</g>
				</g>
				<g>
					<path class="st9" d="M124.8,363.6v61.9c0,12.5,10.1,22.6,22.6,22.6h67.7c12.5,0,22.6-10.1,22.6-22.6v-61.9
						c0-12.5-10.1-22.6-22.6-22.6h-67.7C134.9,341,124.8,351.1,124.8,363.6z"/>
					<g>
						<line class="st1" x1="192.8" y1="383" x2="169.7" y2="406.1"/>
						<line class="st1" x1="192.8" y1="406.1" x2="169.7" y2="383"/>
					</g>
				</g>
				<g>
					<path class="st7" d="M215.1,197.3h-67.7c-12.5,0-22.6,10.1-22.6,22.6v61.9c0,12.5,10.1,22.6,22.6,22.6h67.7
						c12.5,0,22.6-10.1,22.6-22.6V220C237.7,207.5,227.6,197.3,215.1,197.3z"/>
					<g>
						<line class="st1" x1="197.6" y1="252.9" x2="164.9" y2="252.9"/>
					</g>
				</g>
				<g>
					<path class="st3" d="M274.3,363.6v61.9c0,12.5,10.1,22.6,22.6,22.6h67.7c12.5,0,22.6-10.1,22.6-22.6v-61.9
						c0-12.5-10.1-22.6-22.6-22.6h-67.7C284.4,341,274.3,351.1,274.3,363.6z"/>
					<g>
						<g>
							<line class="st1" x1="347.1" y1="382.3" x2="314.4" y2="382.3"/>
						</g>
						<g>
							<line class="st1" x1="347.1" y1="406.7" x2="314.4" y2="406.7"/>
						</g>
					</g>
				</g>
			</g>
		</g>
	</g>
</g>
</svg>
